<?xml version="1.0" encoding="UTF-8" standalone="no"?>
<!-- Created with Inkscape (http://www.inkscape.org/) -->

<svg
   width="52.347031mm"
   height="67.733261mm"
   viewBox="0 0 52.347031 67.733261"
   version="1.1"
   id="svg5"
   xml:space="preserve"
   inkscape:version="1.2.1 (9c6d41e410, 2022-07-14)"
   sodipodi:docname="gitServer.svg"
   xmlns:inkscape="http://www.inkscape.org/namespaces/inkscape"
   xmlns:sodipodi="http://sodipodi.sourceforge.net/DTD/sodipodi-0.dtd"
   xmlns:xlink="http://www.w3.org/1999/xlink"
   xmlns="http://www.w3.org/2000/svg"
   xmlns:svg="http://www.w3.org/2000/svg"><sodipodi:namedview
     id="namedview7"
     pagecolor="#ffffff"
     bordercolor="#000000"
     borderopacity="0.25"
     inkscape:showpageshadow="2"
     inkscape:pageopacity="0.0"
     inkscape:pagecheckerboard="0"
     inkscape:deskcolor="#d1d1d1"
     inkscape:document-units="mm"
     showgrid="false"
     inkscape:zoom="0.73851712"
     inkscape:cx="51.454461"
     inkscape:cy="235.60727"
     inkscape:window-width="1920"
     inkscape:window-height="1057"
     inkscape:window-x="1912"
     inkscape:window-y="-8"
     inkscape:window-maximized="1"
     inkscape:current-layer="layer1" /><defs
     id="defs2"><filter
       id="filter3794"
       height="1.7200059"
       width="1.0654551"
       y="-0.36000296"
       x="-0.03272754"
       color-interpolation-filters="sRGB"><feGaussianBlur
         id="feGaussianBlur3796"
         stdDeviation="10.99209" /></filter><linearGradient
       id="linearGradient3360"
       y2="360.62"
       gradientUnits="userSpaceOnUse"
       y1="-9.6422005"
       x2="1510.9"
       x1="1510.9"><stop
         id="stop3287"
         stop-color="#fff"
         offset="0" /><stop
         id="stop3289"
         stop-color="#fff"
         stop-opacity="0"
         offset="1" /></linearGradient><filter
       id="filter3766"
       color-interpolation-filters="sRGB"
       x="-0.047444236"
       y="-0.048679482"
       width="1.0948884"
       height="1.0973589"><feGaussianBlur
         id="feGaussianBlur3768"
         stdDeviation="7.5100269" /></filter><linearGradient
       id="linearGradient2972"
       y2="600.03003"
       gradientUnits="userSpaceOnUse"
       y1="457.32001"
       x2="513.84998"
       x1="513.84998"><stop
         id="stop3616"
         stop-color="#fff"
         offset="0" /><stop
         id="stop3618"
         stop-color="#bebebe"
         offset="1" /></linearGradient><filter
       id="filter3782"
       color-interpolation-filters="sRGB"
       x="-0.094666474"
       y="-0.032150712"
       width="1.189333"
       height="1.0643014"><feGaussianBlur
         id="feGaussianBlur3784"
         stdDeviation="3.2747106" /></filter><filter
       id="filter3580"
       height="1.3249238"
       width="1.1902725"
       y="-0.16246188"
       x="-0.095136262"
       color-interpolation-filters="sRGB"><feGaussianBlur
         id="feGaussianBlur3582"
         stdDeviation="11.052912" /></filter><filter
       id="filter3778"
       color-interpolation-filters="sRGB"
       x="-0.094666474"
       y="-0.032150712"
       width="1.189333"
       height="1.0643014"><feGaussianBlur
         id="feGaussianBlur3780"
         stdDeviation="3.2747106" /></filter><filter
       id="filter3736"
       height="1.3758137"
       width="1.1762865"
       y="-0.18790683"
       x="-0.088143259"
       color-interpolation-filters="sRGB"><feGaussianBlur
         id="feGaussianBlur3738"
         stdDeviation="12.536909" /></filter><radialGradient
       id="radialGradient2965"
       xlink:href="#linearGradient3420"
       gradientUnits="userSpaceOnUse"
       cy="902.17999"
       cx="712.56"
       gradientTransform="matrix(1,0,0,0.46908,0,457.16)"
       r="170.67999" /><linearGradient
       id="linearGradient3420"><stop
         id="stop3422"
         stop-color="#dfbe00"
         offset="0" /><stop
         id="stop3436"
         stop-color="#deaf00"
         offset=".8" /><stop
         id="stop3424"
         stop-color="#dea101"
         offset="1" /></linearGradient><radialGradient
       id="radialGradient2961"
       xlink:href="#linearGradient3420"
       gradientUnits="userSpaceOnUse"
       cy="898.07001"
       cx="317.23001"
       gradientTransform="matrix(1,0,0,0.46908,0,457.16)"
       r="170.67999" /><filter
       id="filter3758"
       color-interpolation-filters="sRGB"
       x="-0.048603017"
       y="-0.048044488"
       width="1.097206"
       height="1.096089"><feGaussianBlur
         id="feGaussianBlur3760"
         stdDeviation="3.35859" /></filter><filter
       id="filter3762"
       color-interpolation-filters="sRGB"
       x="-0.061202299"
       y="-0.049009811"
       width="1.1230969"
       height="1.0980196"><feGaussianBlur
         id="feGaussianBlur3764"
         stdDeviation="3.486036" /></filter><radialGradient
       id="radialGradient3309"
       xlink:href="#linearGradient3303"
       gradientUnits="userSpaceOnUse"
       cy="269.01999"
       cx="430.04001"
       gradientTransform="matrix(1,0,0,1.2625,0,-70.617)"
       r="77.137001" /><linearGradient
       id="linearGradient3303"><stop
         id="stop3305"
         stop-color="#d2d2d2"
         offset="0" /><stop
         id="stop3311"
         stop-color="#d2d2d2"
         offset=".88" /><stop
         id="stop3307"
         stop-color="#808080"
         offset="1" /></linearGradient><radialGradient
       id="radialGradient3319"
       xlink:href="#linearGradient3303"
       gradientUnits="userSpaceOnUse"
       cy="306.62"
       cx="615.16998"
       gradientTransform="matrix(1,0,0,1.025,0,-7.6655)"
       r="77.137001" /><linearGradient
       id="linearGradient2953"
       x1="1449.7"
       xlink:href="#linearGradient3396"
       gradientUnits="userSpaceOnUse"
       y1="177.42999"
       gradientTransform="translate(-1012.4,30.855)"
       x2="1487.2"
       y2="237.22" /><linearGradient
       id="linearGradient3396"><stop
         id="stop3398"
         stop-color="#fff"
         offset="0" /><stop
         id="stop3400"
         stop-color="#fff"
         stop-opacity="0"
         offset="1" /></linearGradient><linearGradient
       id="linearGradient2949"
       x1="1632.9"
       xlink:href="#linearGradient3396"
       gradientUnits="userSpaceOnUse"
       y1="197.06"
       gradientTransform="translate(-1006.6,26.998)"
       x2="1664.2"
       y2="249.2" /><radialGradient
       id="radialGradient2946"
       xlink:href="#linearGradient3396"
       gradientUnits="userSpaceOnUse"
       cy="319.54001"
       cx="1619.9"
       gradientTransform="matrix(-1,-9.1744e-7,3.3119e-7,-0.361,2230.4,461.02)"
       r="89.638" /><radialGradient
       id="radialGradient2943"
       xlink:href="#linearGradient3396"
       gradientUnits="userSpaceOnUse"
       cy="319.54001"
       cx="1619.9"
       gradientTransform="matrix(-0.75176,-0.93075,0.35943,-0.24791,1476.1,1923.8)"
       r="89.638" /><radialGradient
       id="radialGradient2940"
       xlink:href="#linearGradient3420"
       gradientUnits="userSpaceOnUse"
       cy="418.72"
       cx="510.07001"
       gradientTransform="matrix(1,-9.7786e-8,7.8572e-8,0.80351,8.2454e-5,82.275)"
       r="90.912003" /><linearGradient
       id="linearGradient2937"
       x1="1563.5"
       xlink:href="#linearGradient3396"
       gradientUnits="userSpaceOnUse"
       y1="341.23001"
       gradientTransform="translate(-1003.4,24.993)"
       x2="1532.6"
       y2="393.51001" /><filter
       id="filter3799"
       color-interpolation-filters="sRGB"
       x="-0.037565257"
       y="-0.066461533"
       width="1.0751305"
       height="1.1329231"><feGaussianBlur
         id="feGaussianBlur3801"
         stdDeviation="2.2333129" /></filter><linearGradient
       id="linearGradient3608"
       x1="1304.6"
       xlink:href="#linearGradient3396"
       gradientUnits="userSpaceOnUse"
       x2="1304.6"
       y1="806.09003"
       y2="888.87" /><filter
       id="filter3795"
       color-interpolation-filters="sRGB"
       x="-0.037765861"
       y="-0.063730814"
       width="1.0755317"
       height="1.1274616"><feGaussianBlur
         id="feGaussianBlur3797"
         stdDeviation="2.4579912" /></filter><filter
       id="filter3786"
       color-interpolation-filters="sRGB"
       x="-0.037765861"
       y="-0.063730814"
       width="1.0755317"
       height="1.1274616"><feGaussianBlur
         id="feGaussianBlur3788"
         stdDeviation="2.4579912" /></filter><linearGradient
       id="linearGradient2931"
       x1="938.65002"
       xlink:href="#linearGradient3396"
       gradientUnits="userSpaceOnUse"
       y1="638.37"
       gradientTransform="translate(-1024,44.354)"
       x2="1242.6"
       y2="401.17999" /><filter
       id="filter3774"
       color-interpolation-filters="sRGB"
       x="-0.048640873"
       y="-0.047375575"
       width="1.0972818"
       height="1.0947512"><feGaussianBlur
         id="feGaussianBlur3776"
         stdDeviation="4.0379508" /></filter><linearGradient
       id="linearGradient2928"
       x1="938.65002"
       xlink:href="#linearGradient3396"
       gradientUnits="userSpaceOnUse"
       y1="638.37"
       gradientTransform="matrix(-1,0,0,1,2045.6,42.426)"
       x2="1242.6"
       y2="401.17999" /><filter
       id="filter3770"
       color-interpolation-filters="sRGB"
       x="-0.048640873"
       y="-0.047375575"
       width="1.0972818"
       height="1.0947512"><feGaussianBlur
         id="feGaussianBlur3772"
         stdDeviation="4.0379508" /></filter><linearGradient
       id="linearGradient2925"
       x1="1522.8"
       gradientUnits="userSpaceOnUse"
       y1="892.53003"
       gradientTransform="translate(-1006.1,24.796)"
       x2="1523"
       y2="916.28003"><stop
         id="stop3802"
         stop-color="#3c3c3c"
         offset="0" /><stop
         id="stop3804"
         stop-color="#a0a0a0"
         stop-opacity="0"
         offset="1" /></linearGradient><linearGradient
       id="linearGradient2922"
       x1="1498.6"
       xlink:href="#linearGradient3396"
       gradientUnits="userSpaceOnUse"
       y1="234.5"
       gradientTransform="translate(-1019,27.082)"
       x2="1506.4"
       y2="262.63" /><linearGradient
       id="linearGradient2919"
       x1="1466.7"
       xlink:href="#linearGradient3820"
       gradientUnits="userSpaceOnUse"
       y1="270"
       gradientTransform="translate(-1014.7,22.488)"
       x2="1484.5"
       y2="303.34" /><linearGradient
       id="linearGradient3820"><stop
         id="stop3822"
         stop-color="#3c3c3c"
         offset="0" /><stop
         id="stop3824"
         stop-color="#3c3c3c"
         stop-opacity="0"
         offset="1" /></linearGradient><linearGradient
       id="linearGradient2916"
       x1="1498.2"
       xlink:href="#linearGradient3396"
       gradientUnits="userSpaceOnUse"
       y1="231.99001"
       gradientTransform="translate(-961.8,28.335)"
       x2="1508.4"
       y2="262.63" /><linearGradient
       id="linearGradient3439"
       y2="303.34"
       xlink:href="#linearGradient3820"
       gradientUnits="userSpaceOnUse"
       y1="270"
       gradientTransform="translate(-955.35,24.576)"
       x2="1484.5"
       x1="1466.7" /><linearGradient
       id="linearGradient4750-9-8"><stop
         id="stop4752-4-7"
         style="stop-color:#ffffff"
         offset="0" /><stop
         id="stop4758-2-0"
         style="stop-color:#fefefe"
         offset=".37931" /><stop
         id="stop4754-7-4"
         style="stop-color:#1d1d1d"
         offset="1" /></linearGradient><linearGradient
       x1="65.257004"
       y1="41.474998"
       gradientTransform="matrix(1.2708,0,0,0.78691,798.45768,670.88393)"
       x2="63.868999"
       gradientUnits="userSpaceOnUse"
       y2="127.55"
       id="linearGradient3046"><stop
         offset="0"
         style="stop-color:#314e6c"
         id="stop7693" /><stop
         offset=".55"
         style="stop-color:#7590ae"
         id="stop7695" /><stop
         offset="1"
         style="stop-color:#9db8d2"
         id="stop7697" /></linearGradient><linearGradient
       id="linearGradient1721"
       y2="92.300003"
       gradientUnits="userSpaceOnUse"
       x2="71.061996"
       gradientTransform="matrix(1.2589,0,0,0.79432,798.45768,670.88393)"
       y1="-9.3579998"
       x1="88.238998"><stop
         id="stop1723"
         style="stop-color:#ffffff"
         offset="0" /><stop
         id="stop1724"
         style="stop-color:#ffffff;stop-opacity:0"
         offset="1" /></linearGradient><linearGradient
       id="linearGradient3045"
       y2="115.93"
       gradientUnits="userSpaceOnUse"
       x2="64.209999"
       gradientTransform="matrix(1.2708,0,0,0.78691,798.45768,670.88393)"
       y1="-75.666"
       x1="80.622002"><stop
         id="stop1519"
         style="stop-color:#000000;stop-opacity:.70056"
         offset="0" /><stop
         id="stop1520"
         style="stop-color:#000000;stop-opacity:0"
         offset="1" /></linearGradient><linearGradient
       id="linearGradient1537"
       y2="-8.9209995"
       gradientUnits="userSpaceOnUse"
       x2="72.742996"
       gradientTransform="matrix(1.206,0,0,0.82917,798.45768,670.88393)"
       y1="388.45999"
       x1="60.807999"><stop
         id="stop1512"
         style="stop-color:#565248"
         offset="0" /><stop
         id="stop1513"
         style="stop-color:#fff"
         offset="1" /></linearGradient><radialGradient
       gradientTransform="matrix(1.3811,0,0,0.53101,838.45978,670.22593)"
       id="radialGradient1523"
       fx="23.93"
       fy="143.24001"
       xlink:href="#linearGradient1806"
       gradientUnits="userSpaceOnUse"
       cy="176.56"
       cx="24.825001"
       r="51.667" /><linearGradient
       id="linearGradient1806"><stop
         id="stop1807"
         style="stop-color:#000000;stop-opacity:.40784"
         offset="0" /><stop
         id="stop3276"
         style="stop-color:#000000;stop-opacity:.079096"
         offset=".64778" /><stop
         id="stop1808"
         style="stop-color:#000000;stop-opacity:0"
         offset="1" /></linearGradient><radialGradient
       gradientTransform="matrix(0.68656434,0,0,0.2598959,154.54664,469.97861)"
       id="radialGradient1523-3"
       fx="23.93"
       fy="143.24001"
       xlink:href="#linearGradient1806"
       gradientUnits="userSpaceOnUse"
       cy="176.56"
       cx="24.825001"
       r="51.667" /><radialGradient
       gradientTransform="matrix(1.3811,0,0,0.53101,838.45978,670.22593)"
       id="radialGradient1523-6"
       fx="23.93"
       fy="143.24001"
       xlink:href="#linearGradient1806"
       gradientUnits="userSpaceOnUse"
       cy="176.56"
       cx="24.825001"
       r="51.667" /><radialGradient
       gradientTransform="matrix(1.3811,0,0,0.53101,838.45978,670.22593)"
       id="radialGradient1523-3-1"
       fx="23.93"
       fy="143.24001"
       xlink:href="#linearGradient1806"
       gradientUnits="userSpaceOnUse"
       cy="176.56"
       cx="24.825001"
       r="51.667" /><radialGradient
       gradientTransform="matrix(1.3811,0,0,0.53101,838.45978,670.22593)"
       id="radialGradient1523-3-0"
       fx="23.93"
       fy="143.24001"
       xlink:href="#linearGradient1806"
       gradientUnits="userSpaceOnUse"
       cy="176.56"
       cx="24.825001"
       r="51.667" /><radialGradient
       gradientTransform="matrix(0.73860923,0,0,0.28398297,733.01627,563.85689)"
       id="radialGradient1523-6-4"
       fx="23.93"
       fy="143.24001"
       xlink:href="#linearGradient1806"
       gradientUnits="userSpaceOnUse"
       cy="176.56"
       cx="24.825001"
       r="51.667" /></defs><g
     inkscape:label="Camada 1"
     inkscape:groupmode="layer"
     id="layer1"
     transform="translate(-91.650064,-86.509728)"><g
       id="g4283"><g
         id="g12"
         transform="matrix(0.01119188,0,0,0.01119188,68.807437,63.95809)"><g
           id="g14"
           style="fill:#c7c7c7"><path
             id="path16"
             d="m 5903,2361 c 50,82 34,3995 -31,4149 -51,122 -1703,1495 -1789,1531 -1117,-7 -1870,-414 -1995,-629 -48,-270 -7,-4433 38,-4520 40,-76 2153,-833 2227,-851 67,-15 1493,229 1550,320 z" /></g><g
           id="g18"
           style="fill:#000000"><path
             id="path20"
             d="m 5881,2374 2,-1 -2,2 c 0,-1 -1,-1 -1,-1 v -2 l 7,-3 -2,2 -5,1 5,-1 -2,2 z m 2,-1 2,-2 2,-2 5,-2 -5,4 5,-4 h 1 l -6,3 v 1 -1 z m 10,-6 h -1 1 -1 l 11,-6 -10,5 z m 11,-4 -11,4 v -1 z m 20,-15 c -2,-3 -4,-6 -7,-9 -2,-3 -5,-5 -8,-7 -5,-4 -12,-8 -20,-12 -7,-4 -15,-7 -24,-11 -9,-4 -19,-7 -30,-11 -21,-8 -47,-16 -75,-24 -29,-8 -61,-16 -95,-25 -136,-34 -313,-72 -494,-106 -181,-35 -364,-66 -511,-90 -73,-11 -138,-21 -189,-27 -25,-3 -47,-6 -65,-8 -9,-1 -17,-1 -24,-2 -4,0 -7,0 -10,-1 h -9 c -3,0 -5,0 -7,1 h -4 c -2,0 -3,0 -4,1 -2,0 -4,1 -7,2 -2,0 -5,1 -8,2 -3,1 -7,2 -11,3 -4,2 -8,3 -13,5 -10,3 -22,7 -35,12 -13,4 -28,9 -44,15 -33,11 -71,25 -115,40 -43,15 -91,32 -144,51 -209,75 -481,173 -753,274 -271,101 -542,203 -747,285 -51,21 -98,40 -140,57 -43,18 -80,34 -111,48 -16,7 -30,14 -42,20 -13,6 -24,12 -33,17 -5,2 -9,5 -13,7 -4,3 -8,5 -10,7 -4,3 -7,5 -9,7 -5,4 -7,8 -9,11 -1,2 -2,5 -4,9 0,3 -1,6 -1,9 -1,3 -1,7 -2,11 -1,4 -1,8 -2,13 0,9 -1,20 -3,32 0,13 -1,27 -2,42 -2,31 -4,69 -6,111 -2,43 -4,91 -5,144 -7,213 -14,504 -19,835 -11,662 -19,1482 -19,2144 0,308 2,583 5,791 1,52 2,100 3,143 1,43 3,82 4,115 1,34 3,62 4,85 1,12 2,22 3,30 1,5 1,9 1,13 1,3 2,7 2,10 l 1,4 2,4 c 9,15 20,30 33,46 14,16 30,32 48,49 35,32 80,66 135,101 107,70 249,142 423,207 173,65 377,124 608,167 231,43 489,70 769,72 h 6 l 5,-2 8,-4 c 2,-2 5,-3 8,-6 3,-2 6,-4 10,-6 l 12,-9 c 9,-6 19,-13 30,-22 11,-8 23,-17 37,-28 27,-20 58,-45 93,-73 35,-28 74,-59 116,-93 169,-136 385,-315 600,-497 215,-181 430,-366 593,-512 41,-37 79,-71 113,-103 34,-31 64,-59 89,-84 13,-13 24,-24 34,-35 11,-11 20,-20 28,-29 8,-9 14,-17 19,-23 3,-4 5,-8 7,-10 2,-4 4,-8 6,-11 0,-2 1,-5 2,-8 1,-3 2,-5 3,-9 1,-6 2,-13 3,-22 2,-8 3,-17 4,-28 1,-11 2,-22 3,-35 2,-25 4,-55 7,-89 1,-34 3,-72 5,-113 8,-166 14,-391 19,-648 10,-516 16,-1164 16,-1743 0,-389 -3,-747 -8,-1012 -1,-66 -2,-127 -4,-181 -1,-53 -3,-100 -5,-139 -1,-20 -2,-38 -3,-53 -1,-16 -2,-30 -3,-41 -1,-6 -1,-11 -2,-16 -1,-5 -1,-10 -2,-13 -1,-4 -1,-8 -2,-11 -1,-2 -1,-4 -2,-5 -1,-3 -2,-5 -3,-6 z m -37,21 12,-12 z m -6,9 c 1,3 1,7 2,11 0,4 1,9 1,15 1,11 3,24 4,39 0,15 1,33 2,52 2,39 4,86 6,139 1,53 2,114 4,180 5,264 7,622 7,1011 0,578 -5,1227 -15,1742 -6,257 -12,481 -19,646 -2,42 -4,79 -6,113 -2,33 -4,63 -6,88 -1,12 -2,24 -4,34 0,10 -2,18 -3,26 -1,7 -2,14 -3,18 0,3 -1,4 -1,6 0,1 -1,2 -1,2 0,1 -1,2 -2,4 -1,1 -3,4 -4,6 -5,6 -10,13 -17,21 -7,7 -16,17 -26,27 l -34,34 c -25,24 -54,52 -88,83 -33,31 -71,66 -112,102 -163,146 -377,330 -592,512 -215,181 -431,360 -598,495 -42,34 -81,65 -116,93 -35,28 -66,52 -93,73 -13,10 -26,20 -37,28 -10,8 -20,15 -28,21 -4,3 -8,6 -12,8 -3,2 -6,4 -8,6 -2,1 -4,2 -5,3 -276,-2 -528,-29 -755,-71 -228,-42 -429,-100 -600,-164 -169,-64 -308,-134 -413,-202 -51,-33 -94,-66 -128,-97 -17,-15 -31,-30 -43,-44 -10,-12 -19,-23 -26,-34 v -4 c -1,-3 -1,-7 -1,-11 -1,-8 -2,-18 -3,-28 -2,-23 -3,-51 -5,-84 -1,-33 -2,-71 -3,-115 -1,-42 -2,-90 -3,-142 -3,-208 -5,-482 -5,-790 0,-662 7,-1481 18,-2143 6,-330 12,-622 19,-834 2,-53 4,-101 6,-144 2,-42 3,-79 5,-109 1,-16 2,-30 3,-42 1,-12 2,-22 3,-31 0,-4 1,-8 1,-11 1,-4 1,-6 2,-9 v -2 c 0,-1 1,-1 2,-2 2,-1 4,-3 7,-5 4,-1 7,-4 11,-6 9,-5 19,-10 31,-16 12,-6 26,-12 41,-19 31,-14 67,-29 109,-47 42,-17 89,-37 140,-57 205,-82 475,-184 746,-284 271,-101 543,-200 752,-274 52,-19 101,-36 144,-51 43,-16 82,-29 114,-40 17,-6 31,-11 44,-16 13,-4 25,-8 35,-11 4,-2 9,-3 13,-4 4,-2 7,-3 10,-4 3,-1 5,-1 8,-2 l 3,-1 -2,-8 1,8 h 1 4 7 c 2,0 5,0 8,1 7,0 14,1 23,2 17,1 39,4 64,7 50,6 114,16 187,27 147,23 329,55 509,89 180,35 357,72 492,106 34,9 65,17 92,25 28,8 53,15 73,23 10,3 20,7 28,10 7,3 15,6 20,9 5,3 10,5 13,8 0,0 1,0 1,1 0,1 1,3 1,4 z M 4075,8017 c 1,0 1,-1 2,-1 h 6 v 14 l -8,-13 8,13 v 11 l -10,-23 c 0,0 1,-1 2,-1 z M 2110,7400 c 1,1 1,3 2,4 1,1 1,3 1,4 l -25,4 21,-11 1,-1 -1,1 1,-1 h 2 z m 39,-4498 v 3 c -1,0 -1,1 -2,1 l -5,-6 -17,-4 17,4 -2,-1 4,2 z m -7,-2 2,1 z m -16,-8 14,7 z m 14,7 -10,-11 z m 2217,-841 -2,-17 z m -4,-17 4,17 v 1 z" /></g><g
           id="g22"
           style="fill:#ffffff;fill-opacity:0.54118;stroke:#ffffff;stroke-opacity:0.54118"><path
             id="path24"
             d="m 5822,2442 -52,22 -52,23 -52,23 -53,25 -53,25 -53,26 -53,26 -54,27 -54,27 -54,28 -55,28 -54,29 -55,29 -55,29 -111,60 -112,60 -112,60 -113,61 -114,60 -114,60 -114,59 -57,29 -57,29 -58,28 -57,28 -27,-6 -28,-7 -56,-13 -58,-14 -59,-13 -60,-14 -61,-14 -61,-14 -63,-14 -62,-14 -63,-15 -127,-28 -127,-28 -64,-14 -63,-14 -62,-13 -62,-13 -61,-13 -60,-13 -60,-13 -58,-12 -57,-12 -28,-5 -28,-6 -27,-5 -27,-6 -27,-5 -26,-5 -26,-5 -25,-6 -25,-4 -24,-5 -24,-5 -24,-4 -23,-4 -22,-5 -22,-4 -21,-3 -21,-4 -20,-4 52,16 52,16 53,16 54,15 55,16 55,15 57,16 56,15 57,16 58,15 116,31 117,30 118,31 118,31 117,30 116,31 58,15 57,16 57,15 56,16 55,15 55,16 54,15 53,16 52,16 52,16 1,60 2,61 1,61 1,63 1,64 2,64 1,65 1,66 1,67 1,67 1,68 v 69 l 1,69 1,70 1,70 v 71 l 1,71 v 72 l 1,72 1,73 1,146 1,147 v 149 l 1,149 2,299 1,300 1,149 1,148 1,147 1,146 1,73 v 72 l 1,72 1,71 v 71 l 1,71 1,69 1,70 v 68 l 1,68 1,67 1,67 1,66 1,65 1,65 2,63 1,63 1,62 2,61 1,60 1,-61 1,-61 v -63 l 1,-63 1,-64 1,-65 1,-66 1,-67 1,-67 1,-68 1,-69 2,-69 1,-70 1,-71 1,-71 1,-72 1,-72 2,-73 1,-73 1,-73 3,-148 3,-149 2,-151 3,-151 6,-303 5,-303 3,-151 3,-150 2,-149 3,-149 1,-73 2,-73 1,-73 1,-72 1,-71 1,-72 1,-70 2,-70 1,-70 1,-68 1,-68 1,-68 1,-66 1,-66 1,-65 1,-64 1,-64 v -62 l 1,-62 1,-60 110,-59 109,-59 109,-57 109,-58 108,-57 107,-58 107,-57 107,-58 105,-58 105,-58 104,-60 103,-60 51,-30 50,-31 51,-31 50,-31 50,-31 50,-32 49,-32 z" /></g><g
           id="g28"
           style="fill:none"><path
             id="path30"
             d="m 5822,2442 c -549,232 -1156,606 -1768,901 -580,-138 -1417,-322 -1839,-396 543,169 1257,327 1800,496 32,1271 16,3196 48,4467 16,-1282 59,-3238 75,-4519 586,-317 1161,-601 1684,-949 z" /></g><g
           id="g32"
           style="fill:#000000;fill-opacity:0.16078;stroke:#ffffff;stroke-opacity:0.16078"><path
             id="path34"
             d="m 2420,6628 10,14 10,13 11,13 12,13 12,12 12,12 14,12 13,12 14,12 15,11 15,11 16,11 15,11 17,10 16,10 17,11 18,9 18,10 18,9 18,8 19,9 19,8 19,8 19,8 40,15 40,14 41,12 41,11 42,10 41,9 42,8 41,6 41,6 41,3 21,2 20,1 19,1 h 20 20 19 l 19,-1 19,-1 18,-1 19,-1 17,-2 18,-3 17,-2 17,-3 17,-4 16,-4 15,-4 15,-4 15,-5 15,-5 -2,-1 h -1 l -5,-2 -6,-1 -7,-2 -8,-2 -10,-3 -10,-3 -12,-3 -13,-4 -14,-3 -15,-4 -16,-5 -16,-4 -18,-5 -18,-5 -19,-5 -20,-6 -20,-5 -21,-6 -22,-6 -22,-6 -22,-6 -23,-7 -24,-6 -48,-13 -49,-14 -50,-14 -50,-13 -50,-15 -50,-13 -49,-14 -49,-13 -23,-7 -24,-6 -23,-7 -22,-6 -22,-6 -21,-6 -21,-6 -20,-5 -19,-6 -19,-5 -18,-5 -17,-5 -16,-4 -15,-5 -15,-4 -13,-4 -12,-3 -12,-3 -10,-3 -9,-3 -7,-2 -7,-2 -5,-2 h -2 z" /></g><g
           id="g38"
           style="fill:none"><path
             id="path40"
             d="m 2420,6628 c 201,289 833,431 1133,315 -53,-14 -1066,-293 -1133,-315 z" /></g><g
           id="g42"
           style="fill:#ffffff;fill-opacity:0.38824;stroke:#ffffff;stroke-opacity:0.38824"><path
             id="path44"
             d="m 3454,6093 -936,-361 -9,4 -8,4 -8,4 -6,5 -6,6 -6,6 -5,7 -5,6 -4,7 -4,7 -3,7 -3,8 -3,8 -2,7 -3,15 -2,15 -2,14 v 6 7 5 6 5 4 4 l 1,4 v 2 2 1 1 l 146,51 1,1 1,1 1,1 1,2 2,2 1,3 3,3 2,3 3,4 3,4 3,4 4,5 4,4 4,6 5,4 10,12 10,11 13,12 13,12 14,13 15,12 17,13 17,12 19,12 19,11 21,11 22,10 11,4 11,5 12,4 12,4 13,3 12,3 13,3 13,3 13,2 13,1 14,2 14,1 h 14 15 15 l 15,-1 15,-2 15,-2 16,-2 16,-3 16,-4 16,-4 17,-5 17,-6 h 1 l 2,1 h 3 l 6,1 6,1 7,1 8,1 9,1 10,1 11,1 12,1 12,1 h 12 l 13,1 h 26 l 14,-1 13,-1 14,-1 13,-2 13,-2 12,-3 12,-3 12,-3 10,-5 11,-5 9,-6 8,-6 8,-8 3,-4 3,-4 3,-4 2,-4 2,-5 z" /></g><g
           id="g48"
           style="fill:none"><path
             id="path50"
             d="m 3454,6093 -936,-361 c -97,34 -78,177 -78,177 l 146,51 c 0,0 204,319 566,194 0,0 269,48 302,-61 z" /></g><g
           id="g52"
           style="fill:#606060"><path
             id="path54"
             d="m 3446,5971 c -311,-81 -622,-161 -933,-242 -12,44 -13,107 6,140 47,23 142,41 189,64 136,131 255,142 472,124 84,17 168,31 251,48 26,-51 33,-72 15,-134 z" /></g><g
           id="g56"
           style="fill:none"><path
             id="path58"
             d="m 3446,5971 c -311,-81 -622,-161 -933,-242 -12,44 -13,107 6,140 47,23 142,41 189,64 136,131 255,142 472,124 84,17 168,31 251,48 26,-51 33,-72 15,-134 z" /></g><g
           id="g60"
           style="fill:#ffffff;fill-opacity:0.4;stroke:#ffffff;stroke-opacity:0.4"><path
             id="path62"
             d="m 5856,2414 -1813,1017 7,4549 1775,-1494 z" /></g><g
           id="g66"
           style="fill:none"><path
             id="path68"
             d="m 5856,2414 -1813,1017 7,4549 1775,-1494 z" /></g><g
           id="g70"
           style="fill:#000000;fill-opacity:0.16078;stroke:#ffffff;stroke-opacity:0.16078"><path
             id="path72"
             d="m 2525,6916 10,13 11,12 10,13 11,11 11,12 11,11 12,11 12,10 12,10 12,10 13,10 12,9 13,9 13,8 27,17 28,15 28,14 28,13 29,11 29,11 30,9 30,8 29,8 30,6 30,5 30,4 30,3 30,2 29,2 h 29 l 29,-1 27,-2 28,-2 27,-3 26,-5 25,-5 24,-6 24,-6 22,-8 -2,-1 h -4 l -4,-2 -5,-1 -6,-2 -8,-2 -8,-2 -9,-2 -10,-3 -10,-3 -11,-3 -12,-3 -13,-4 -13,-3 -14,-4 -15,-4 -15,-4 -15,-5 -16,-4 -16,-5 -17,-4 -18,-5 -35,-10 -36,-10 -38,-10 -38,-10 -38,-11 -76,-21 -37,-10 -37,-11 -36,-10 -17,-4 -17,-5 -17,-5 -16,-4 -16,-5 -15,-4 -15,-4 -14,-4 -14,-4 -13,-4 -12,-3 -11,-3 -12,-3 -10,-3 -9,-3 -8,-2 -8,-3 -7,-1 -6,-2 -5,-2 -4,-1 z" /></g><g
           id="g76"
           style="fill:none"><path
             id="path78"
             d="m 2525,6916 c 209,276 627,323 861,239 -39,-10 -810,-222 -861,-239 z" /></g><g
           id="g80"
           style="fill:#000000;fill-opacity:0.16078;stroke:#ffffff;stroke-opacity:0.16078"><path
             id="path82"
             d="m 2680,7199 12,15 12,14 13,14 14,12 14,13 14,11 15,11 16,11 15,9 17,9 16,9 17,7 18,7 17,7 18,5 18,5 18,5 19,3 18,4 19,2 18,2 19,1 h 19 19 l 18,-1 19,-2 18,-2 19,-3 18,-4 18,-4 18,-5 17,-6 h -1 l -2,-1 h -3 l -4,-1 -3,-1 -5,-2 -5,-1 -6,-2 -6,-1 -6,-2 -7,-2 -8,-2 -8,-2 -8,-3 -9,-2 -9,-2 -19,-6 -20,-5 -22,-6 -22,-6 -23,-6 -23,-7 -48,-13 -48,-13 -23,-7 -23,-6 -23,-6 -21,-6 -21,-6 -19,-6 -9,-2 -9,-3 -9,-2 -8,-2 -8,-2 -7,-2 -7,-2 -6,-2 -6,-2 -5,-2 -5,-1 -5,-1 -3,-1 -3,-1 -3,-1 z" /></g><g
           id="g86"
           style="fill:none"><path
             id="path88"
             d="m 2680,7199 c 121,163 355,213 540,149 -25,-6 -507,-139 -540,-149 z" /></g><g
           id="g90"
           style="fill:#fcfcfc;fill-opacity:0.43922;stroke:#ffffff;stroke-opacity:0.43922"><path
             id="path92"
             d="m 2356,3259 -92,13 -17,2173 1425,399 35,-116 -1369,-365 z" /></g><g
           id="g96"
           style="fill:none"><path
             id="path98"
             d="m 2356,3259 -92,13 -17,2173 1425,399 35,-116 -1369,-365 z" /></g><g
           id="g100"
           style="fill:#000000;fill-opacity:0.23137;stroke:#ffffff;stroke-opacity:0.23137"><path
             id="path102"
             d="m 3700,4065 -2,61 -1340,-386 z" /></g><g
           id="g106"
           style="fill:#000000;fill-opacity:0.23137;stroke:#ffffff;stroke-opacity:0.23137"><path
             id="path108"
             d="m 3720,4507 -3,61 -1339,-386 z" /></g><g
           id="g112"
           style="fill:#000000;fill-opacity:0.23137;stroke:#ffffff;stroke-opacity:0.23137"><path
             id="path114"
             d="m 3700,4916 -2,61 -1340,-386 z" /></g><g
           id="g118"
           style="fill:#000000;fill-opacity:0.23137;stroke:#ffffff;stroke-opacity:0.23137"><path
             id="path120"
             d="m 3700,5318 -2,61 -1340,-387 z" /></g><g
           id="g124"
           style="fill:#9e9e9e"><path
             id="path126"
             d="m 2361,3309 1332,333 -11,2197 h 11 11 l 11,-2205 v -9 l -8,-2 -1341,-335 -2,11 z m 1340,335 -8,-2 v -8 h 11 z" /></g></g><path
         fill="#f05133"
         d="m 143.33576,133.50344 -15.30751,-15.30673 c -0.88138,-0.88178 -2.31106,-0.88178 -3.1932,0 l -3.17834,3.17908 4.03187,4.03188 c 0.93709,-0.3167 2.01154,-0.10412 2.75824,0.64291 0.75128,0.75166 0.9619,1.83526 0.6372,2.77579 l 3.88648,3.88611 c 0.94053,-0.32431 2.02491,-0.1145 2.77581,0.63758 1.04926,1.04928 1.04926,2.74947 0,3.7995 -1.05005,1.04965 -2.75024,1.04965 -3.80066,0 -0.78905,-0.78982 -0.9844,-1.94973 -0.58416,-2.92193 l -3.62474,-3.62436 v 9.53767 c 0.25563,0.12662 0.49717,0.29531 0.71007,0.50822 1.04927,1.04926 1.04927,2.74947 0,3.79989 -1.04927,1.04889 -2.75062,1.04889 -3.79911,0 -1.04928,-1.05081 -1.04928,-2.751 0,-3.79989 0.25944,-0.25907 0.55973,-0.45519 0.88023,-0.58644 v -9.62657 c -0.3205,-0.13123 -0.62002,-0.32547 -0.88023,-0.58646 -0.79478,-0.79439 -0.98595,-1.96117 -0.57844,-2.93719 l -3.97464,-3.97539 -10.4965,10.49536 c -0.88178,0.88253 -0.88178,2.31222 0,3.19399 l 15.30826,15.30711 c 0.88139,0.88177 2.31068,0.88177 3.19321,0 l 15.23616,-15.23615 c 0.88178,-0.88176 0.88178,-2.3122 0,-3.19398 z"
         id="path2436"
         style="stroke-width:0.381552" /></g></g></svg>
